<?xml version="1.0" encoding="UTF-8"?>
<!DOCTYPE svg PUBLIC "-//W3C//DTD SVG 1.1//EN" "http://www.w3.org/Graphics/SVG/1.1/DTD/svg11.dtd">
<svg xmlns="http://www.w3.org/2000/svg" version="1.1" width="2048px" height="2048px" style="shape-rendering:geometricPrecision; text-rendering:geometricPrecision; image-rendering:optimizeQuality; fill-rule:evenodd; clip-rule:evenodd" xmlns:xlink="http://www.w3.org/1999/xlink">
<g><path style="opacity:1" fill="#000000" d="M 1005.5,806.5 C 1061.84,802.249 1112.51,816.415 1157.5,849C 1197.28,882.106 1220.95,924.939 1228.5,977.5C 1216.17,977.5 1203.83,977.5 1191.5,977.5C 1188.49,961.313 1183.82,945.647 1177.5,930.5C 1173.13,922.227 1168.3,914.227 1163,906.5C 1158.28,902.212 1154.45,897.212 1151.5,891.5C 1116.71,856.303 1074.04,838.303 1023.5,837.5C 973.596,838.319 931.263,855.986 896.5,890.5C 894.611,894.232 892.111,897.565 889,900.5C 871.559,922.82 860.726,948.153 856.5,976.5C 843.845,977.538 831.179,977.538 818.5,976.5C 819.646,966.502 821.646,956.668 824.5,947C 829.014,935.074 833.68,923.241 838.5,911.5C 844.132,902.523 849.799,893.523 855.5,884.5C 861.823,877.207 868.157,869.874 874.5,862.5C 883.594,854.105 893.26,846.438 903.5,839.5C 911.658,834.586 919.991,829.919 928.5,825.5C 939.926,821.374 951.426,817.374 963,813.5C 977.224,810.67 991.391,808.336 1005.5,806.5 Z"/></g>
<g><path style="opacity:1" fill="#000000" d="M 1198.5,1004.5 C 1209.5,1004.87 1220.5,1005.21 1231.5,1005.5C 1235.27,1050.48 1227.6,1093.32 1208.5,1134C 1168.31,1205.8 1106.48,1241.3 1023,1240.5C 960.097,1242.4 907.597,1220.73 865.5,1175.5C 859.955,1167.09 853.955,1159.09 847.5,1151.5C 833.372,1127.67 823.705,1102 818.5,1074.5C 815.07,1052.97 813.403,1031.3 813.5,1009.5C 824.362,1008.52 835.195,1007.18 846,1005.5C 858.316,1008.33 870.649,1011 883,1013.5C 894.013,1017.04 904.68,1021.37 915,1026.5C 926.246,1033.18 937.412,1039.68 948.5,1046C 991.537,1083.08 1016.2,1130.24 1022.5,1187.5C 1024.51,1174.76 1026.84,1162.1 1029.5,1149.5C 1033.26,1139.67 1036.26,1129.67 1038.5,1119.5C 1039.5,1119.5 1040.5,1119.5 1041.5,1119.5C 1043.34,1113.5 1045.67,1107.67 1048.5,1102C 1054.13,1093.55 1059.8,1085.05 1065.5,1076.5C 1076.59,1063.74 1088.59,1052.08 1101.5,1041.5C 1108.65,1038.51 1115.15,1034.51 1121,1029.5C 1130.41,1025.36 1139.74,1021.03 1149,1016.5C 1155.26,1013.82 1161.76,1011.82 1168.5,1010.5C 1178.53,1007.91 1188.53,1005.91 1198.5,1004.5 Z M 1187.5,1039.5 C 1190.17,1039.5 1192.83,1039.5 1195.5,1039.5C 1193.96,1062.68 1189.29,1085.18 1181.5,1107C 1176.85,1115.99 1172.19,1124.99 1167.5,1134C 1162.25,1140.8 1157.08,1147.63 1152,1154.5C 1146.82,1159.04 1141.99,1163.88 1137.5,1169C 1134.11,1170.22 1131.44,1172.38 1129.5,1175.5C 1111.19,1188.13 1091.19,1197.46 1069.5,1203.5C 1065.87,1204.25 1062.2,1204.58 1058.5,1204.5C 1059.65,1164.3 1071.98,1128.3 1095.5,1096.5C 1102.67,1089.4 1109.67,1082.06 1116.5,1074.5C 1137.56,1057.8 1161.23,1046.14 1187.5,1039.5 Z M 851.5,1040.5 C 860.144,1041.8 868.644,1043.8 877,1046.5C 902.607,1056.01 924.44,1070.67 942.5,1090.5C 943.628,1091.26 944.795,1091.93 946,1092.5C 965.074,1117.5 977.907,1145.67 984.5,1177C 985.558,1186.18 986.558,1195.34 987.5,1204.5C 980.056,1204.6 972.889,1203.27 966,1200.5C 955.08,1195.64 944.08,1190.97 933,1186.5C 906.985,1169.48 886.485,1147.32 871.5,1120C 860.501,1094.66 853.835,1068.16 851.5,1040.5 Z"/></g>
</svg>
