<?xml version="1.0" encoding="UTF-8"?>
<!DOCTYPE svg PUBLIC "-//W3C//DTD SVG 1.1//EN" "http://www.w3.org/Graphics/SVG/1.1/DTD/svg11.dtd">
<svg xmlns="http://www.w3.org/2000/svg" version="1.1" width="1720px" height="560px" viewBox="220 730 1720 560" style="shape-rendering:geometricPrecision; text-rendering:geometricPrecision; image-rendering:optimizeQuality; fill-rule:evenodd; clip-rule:evenodd" xmlns:xlink="http://www.w3.org/1999/xlink">
<g><path style="opacity:1" fill="#584738" d="M 773.5,753.5 C 787.68,751.369 797.68,756.702 803.5,769.5C 808.084,783.924 804.084,795.091 791.5,803C 778.253,807.44 767.253,804.44 758.5,794C 756.923,789.059 755.59,784.059 754.5,779C 755.364,774.423 756.531,769.923 758,765.5C 760.652,764.41 762.152,762.41 762.5,759.5C 766.417,757.713 770.083,755.713 773.5,753.5 Z"/></g>
<g><path style="opacity:1" fill="#584738" d="M 1327.5,754.5 C 1337.83,754.5 1348.17,754.5 1358.5,754.5C 1358.5,918.167 1358.5,1081.83 1358.5,1245.5C 1348.17,1245.5 1337.83,1245.5 1327.5,1245.5C 1327.67,1214.83 1327.5,1184.16 1327,1153.5C 1314.06,1185.76 1292.89,1210.93 1263.5,1229C 1233.13,1246 1200.46,1253.33 1165.5,1251C 1093.3,1245.99 1043.3,1210.66 1015.5,1145C 1003.16,1109.84 999.165,1073.67 1003.5,1036.5C 1009.39,983.641 1033.06,941.474 1074.5,910C 1120.49,881.871 1169.99,874.037 1223,886.5C 1266.45,898.921 1299.29,924.588 1321.5,963.5C 1323.25,967.871 1325.08,972.205 1327,976.5C 1327.5,902.501 1327.67,828.501 1327.5,754.5 Z M 1161.5,906.5 C 1230.72,901.917 1281.38,929.75 1313.5,990C 1324.11,1014.02 1328.78,1039.19 1327.5,1065.5C 1328.69,1097.27 1321.69,1126.94 1306.5,1154.5C 1303.74,1158.36 1301.24,1162.36 1299,1166.5C 1294.12,1170.84 1290.12,1175.84 1287,1181.5C 1281.91,1184.26 1277.74,1188.09 1274.5,1193C 1267.95,1196.23 1261.95,1200.23 1256.5,1205C 1232.71,1218.31 1207.05,1224.81 1179.5,1224.5C 1121.21,1224.4 1078.21,1199.56 1050.5,1150C 1027.04,1096.89 1025.7,1043.22 1046.5,989C 1054.19,973.532 1063.52,959.365 1074.5,946.5C 1078.91,944.179 1082.57,941.013 1085.5,937C 1091.51,933.662 1097.18,929.828 1102.5,925.5C 1121.22,915.584 1140.88,909.251 1161.5,906.5 Z"/></g>
<g><path style="opacity:1" fill="#584738" d="M 378.5,878.5 C 410.852,876.236 441.852,881.403 471.5,894C 475.19,896.846 479.19,899.179 483.5,901C 489.726,905.923 496.06,910.756 502.5,915.5C 504.591,918.073 506.425,920.74 508,923.5C 510.333,925.5 512.667,927.5 515,929.5C 531.301,953.837 540.635,980.837 543,1010.5C 543.5,1088.83 543.667,1167.17 543.5,1245.5C 534.167,1245.5 524.833,1245.5 515.5,1245.5C 515.667,1172.17 515.5,1098.83 515,1025.5C 514.486,1002.15 508.986,980.148 498.5,959.5C 481.918,931.254 457.418,913.587 425,906.5C 399.185,902.773 373.685,904.106 348.5,910.5C 319.196,921.136 297.196,940.136 282.5,967.5C 274.517,986.711 269.517,1006.71 267.5,1027.5C 266.5,1100.16 266.167,1172.83 266.5,1245.5C 256.833,1245.5 247.167,1245.5 237.5,1245.5C 237.5,1125.5 237.5,1005.5 237.5,885.5C 247.167,885.5 256.833,885.5 266.5,885.5C 266.167,910.176 266.5,934.842 267.5,959.5C 280.114,927.44 302.447,904.44 334.5,890.5C 349.068,885.185 363.735,881.185 378.5,878.5 Z"/></g>
<g><path style="opacity:1" fill="#584738" d="M 1720.5,881.5 C 1756.65,878.436 1791.32,883.936 1824.5,898C 1871.87,922.756 1901.87,961.422 1914.5,1014C 1915.2,1017.8 1915.54,1021.64 1915.5,1025.5C 1905.5,1025.5 1895.5,1025.5 1885.5,1025.5C 1882.08,1001.46 1873.08,979.791 1858.5,960.5C 1852.62,953.943 1846.62,947.443 1840.5,941C 1811.79,918.428 1778.96,906.928 1742,906.5C 1700.18,906.65 1664.51,920.984 1635,949.5C 1628.98,958.5 1622.65,967.167 1616,975.5C 1607.08,991.031 1601.24,1007.7 1598.5,1025.5C 1588.06,1025.86 1577.73,1025.03 1567.5,1023C 1575.01,986.309 1591.35,954.642 1616.5,928C 1620.93,924.984 1625.26,921.817 1629.5,918.5C 1630.5,917.167 1631.5,915.833 1632.5,914.5C 1659.21,896.49 1688.54,885.49 1720.5,881.5 Z"/></g>
<g><path style="opacity:1" fill="#584738" d="M 765.5,885.5 C 775.5,885.5 785.5,885.5 795.5,885.5C 795.5,1005.5 795.5,1125.5 795.5,1245.5C 785.5,1245.5 775.5,1245.5 765.5,1245.5C 765.5,1125.5 765.5,1005.5 765.5,885.5 Z"/></g>
<g><path style="opacity:1" fill="#584738" d="M 1887.5,1050.5 C 1898.21,1050.64 1908.87,1051.3 1919.5,1052.5C 1922.06,1092.5 1914.22,1130.17 1896,1165.5C 1860.61,1222.48 1808.78,1251.14 1740.5,1251.5C 1727.38,1250.19 1714.22,1248.86 1701,1247.5C 1648.73,1235.72 1609.9,1206.56 1584.5,1160C 1569.18,1126.69 1562.52,1091.52 1564.5,1054.5C 1577.82,1053.59 1591.16,1053.42 1604.5,1054C 1672.46,1068.86 1716.12,1109.86 1735.5,1177C 1737.57,1188.15 1739.57,1199.32 1741.5,1210.5C 1745.86,1159.61 1766.86,1117.95 1804.5,1085.5C 1820.1,1073.53 1837.44,1064.36 1856.5,1058C 1866.98,1055.05 1877.31,1052.55 1887.5,1050.5 Z M 1884.5,1077.5 C 1886.17,1077.5 1887.83,1077.5 1889.5,1077.5C 1888.64,1123.92 1871.31,1162.26 1837.5,1192.5C 1817.73,1207.48 1795.4,1217.15 1770.5,1221.5C 1771.73,1177.09 1788.06,1139.75 1819.5,1109.5C 1838.91,1094.1 1860.58,1083.43 1884.5,1077.5 Z M 1595.5,1079.5 C 1630.56,1085.82 1658.9,1102.49 1680.5,1129.5C 1693.1,1146.57 1702.1,1165.57 1707.5,1186.5C 1709.65,1198.11 1711.32,1209.77 1712.5,1221.5C 1679.76,1216.07 1652.6,1201.4 1631,1177.5C 1612.08,1154.44 1600.58,1127.94 1596.5,1098C 1595.78,1091.85 1595.45,1085.69 1595.5,1079.5 Z"/></g>
</svg>
